# xmcd
# 
# Track frame offsets:
#     150
#     25075
#     49125
#     66785
# 
# Disc length: 1028
# 
# Revision: 0
# Processed by: cddbd v1.5.2PL0 Copyright (c) Steve Scherf et al.
# Submitted via: fre:ac v1.0.17
# 
DISCID=2d040204
DTITLE=Frank Boeijen - De ontmoeting (single)
DYEAR=1995
DGENRE=Pop
TTITLE0=De ontmoeting (live)
TTITLE1=De ontmoeting (studio versie)
TTITLE2=Jungle (akoestische demo versie)
TTITLE3=Muze (akoestische demo versie)
EXTD=
EXTT0=
EXTT1=
EXTT2=
EXTT3=
PLAYORDER=
